<svg xmlns="http://www.w3.org/2000/svg" width="256" height="256" viewBox="0 0 100 100"><rect width="100" height="100" rx="20" fill="#ffe8bd"></rect><path d="M10.50 57.98L10.50 57.98Q12.51 57.98 13.55 57.07Q14.58 56.15 14.58 54.71L14.58 54.71Q14.58 53.45 13.79 52.67Q12.99 51.89 11.29 51.38L11.29 51.38L8.67 50.60Q6.75 50.03 5.66 48.92Q4.56 47.81 4.56 45.92L4.56 45.92Q4.56 44.78 5.00 43.87Q5.43 42.95 6.24 42.32Q7.05 41.69 8.18 41.34Q9.30 41 10.71 41L10.71 41Q11.91 41 12.95 41.20Q13.98 41.39 14.75 41.73Q15.51 42.08 15.93 42.50Q16.35 42.92 16.35 43.37L16.35 43.37Q16.35 43.79 16.14 44.09Q15.93 44.39 15.60 44.57L15.60 44.57Q14.82 43.97 13.58 43.52Q12.33 43.07 10.80 43.07L10.80 43.07Q9.04 43.07 8.03 43.82Q7.02 44.57 7.02 45.92L7.02 45.92Q7.02 46.97 7.74 47.63Q8.46 48.29 10.14 48.77L10.14 48.77L11.97 49.31Q14.34 50 15.71 51.25Q17.07 52.49 17.07 54.71L17.07 54.71Q17.07 57.08 15.36 58.55Q13.65 60.02 10.50 60.02L10.50 60.02Q9.13 60.02 8.00 59.78Q6.87 59.54 6.08 59.15Q5.28 58.76 4.85 58.30Q4.41 57.83 4.41 57.38L4.41 57.38Q4.41 56.87 4.73 56.53Q5.04 56.18 5.46 56.03L5.46 56.03Q5.79 56.36 6.27 56.71Q6.75 57.05 7.38 57.34Q8.01 57.62 8.79 57.80Q9.57 57.98 10.50 57.98ZM23.20 59.57L23.20 59.57Q23.04 59.63 22.74 59.71Q22.45 59.78 22.09 59.78L22.09 59.78Q20.79 59.78 20.79 58.70L20.79 58.70L20.79 40.19Q20.95 40.13 21.26 40.06Q21.57 39.98 21.93 39.98L21.93 39.98Q23.20 39.98 23.20 41.06L23.20 41.06L23.20 46.46Q23.91 46.04 24.89 45.71Q25.86 45.38 27.09 45.38L27.09 45.38Q28.35 45.38 29.39 45.71Q30.42 46.04 31.17 46.72Q31.92 47.39 32.34 48.43Q32.77 49.46 32.77 50.84L32.77 50.84L32.77 59.57Q32.61 59.63 32.30 59.71Q31.98 59.78 31.66 59.78L31.66 59.78Q30.36 59.78 30.36 58.70L30.36 58.70L30.36 50.90Q30.36 49.10 29.38 48.23Q28.38 47.36 26.77 47.36L26.77 47.36Q25.71 47.36 24.80 47.73Q23.88 48.11 23.20 48.65L23.20 48.65L23.20 59.57ZM48.22 52.82L38.98 54.11Q39.78 58.04 44.13 58.04L44.13 58.04Q45.39 58.04 46.41 57.62Q47.44 57.20 48.03 56.72L48.03 56.72Q48.76 57.14 48.76 57.86L48.76 57.86Q48.76 58.28 48.38 58.67Q48.01 59.06 47.36 59.36Q46.72 59.66 45.86 59.84Q45.01 60.02 44.02 60.02L44.02 60.02Q40.53 60.02 38.51 58.13Q36.48 56.24 36.48 52.61L36.48 52.61Q36.48 50.90 36.98 49.57Q37.48 48.23 38.36 47.30Q39.24 46.37 40.48 45.88Q41.70 45.38 43.14 45.38L43.14 45.38Q44.50 45.38 45.63 45.83Q46.77 46.28 47.60 47.11Q48.42 47.93 48.89 49.06Q49.36 50.18 49.36 51.53L49.36 51.53Q49.36 52.19 49.05 52.48Q48.76 52.76 48.22 52.82L48.22 52.82ZM43.12 47.33L43.12 47.33Q41.28 47.33 40.09 48.61Q38.88 49.88 38.83 52.25L38.83 52.25L47.08 51.11Q46.92 49.46 45.92 48.40Q44.91 47.33 43.12 47.33ZM55.48 59.57L55.48 59.57Q55.33 59.63 55.02 59.71Q54.73 59.78 54.37 59.78L54.37 59.78Q53.08 59.78 53.08 58.70L53.08 58.70L53.08 40.19Q53.23 40.13 53.54 40.06Q53.86 39.98 54.19 39.98L54.19 39.98Q55.48 39.98 55.48 41.06L55.48 41.06L55.48 59.57ZM64.95 60.02L64.95 60.02Q62.86 60.02 61.55 59.09Q60.25 58.16 60.25 56L60.25 56L60.25 41.75Q60.40 41.69 60.71 41.62Q61.03 41.54 61.39 41.54L61.39 41.54Q62.65 41.54 62.65 42.62L62.65 42.62L62.65 46.07L67.56 46.07Q67.66 46.22 67.75 46.48Q67.84 46.73 67.84 47.03L67.84 47.03Q67.84 48.05 66.94 48.05L66.94 48.05L62.65 48.05L62.65 55.85Q62.65 57.05 63.32 57.55Q64.00 58.04 65.23 58.04L65.23 58.04Q65.73 58.04 66.37 57.86Q67.00 57.68 67.42 57.44L67.42 57.44Q67.59 57.62 67.75 57.89Q67.90 58.16 67.90 58.52L67.90 58.52Q67.90 59.18 67.12 59.60Q66.34 60.02 64.95 60.02ZM82.33 52.82L73.08 54.11Q73.89 58.04 78.25 58.04L78.25 58.04Q79.50 58.04 80.53 57.62Q81.55 57.20 82.14 56.72L82.14 56.72Q82.86 57.14 82.86 57.86L82.86 57.86Q82.86 58.28 82.49 58.67Q82.11 59.06 81.47 59.36Q80.83 59.66 79.97 59.84Q79.11 60.02 78.13 60.02L78.13 60.02Q74.64 60.02 72.62 58.13Q70.59 56.24 70.59 52.61L70.59 52.61Q70.59 50.90 71.09 49.57Q71.58 48.23 72.47 47.30Q73.36 46.37 74.58 45.88Q75.81 45.38 77.25 45.38L77.25 45.38Q78.61 45.38 79.75 45.83Q80.89 46.28 81.71 47.11Q82.53 47.93 83 49.06Q83.47 50.18 83.47 51.53L83.47 51.53Q83.47 52.19 83.16 52.48Q82.86 52.76 82.33 52.82L82.33 52.82ZM77.22 47.33L77.22 47.33Q75.39 47.33 74.19 48.61Q73.00 49.88 72.94 52.25L72.94 52.25L81.19 51.11Q81.03 49.46 80.03 48.40Q79.03 47.33 77.22 47.33ZM89.34 48.35L89.34 59.57Q89.19 59.63 88.89 59.71Q88.59 59.78 88.23 59.78L88.23 59.78Q86.94 59.78 86.94 58.70L86.94 58.70L86.94 48.53Q86.94 47.84 87.20 47.44Q87.45 47.03 88.05 46.64L88.05 46.64Q88.83 46.13 90.17 45.76Q91.50 45.38 93.18 45.38L93.18 45.38Q95.58 45.38 95.58 46.58L95.58 46.58Q95.58 46.88 95.49 47.14Q95.40 47.39 95.25 47.57L95.25 47.57Q94.95 47.51 94.47 47.45Q93.99 47.39 93.51 47.39L93.51 47.39Q92.13 47.39 91.08 47.68Q90.03 47.96 89.34 48.35L89.34 48.35Z" fill="#090909"></path></svg>