<svg width="65" height="68" viewBox="0 0 65 68" fill="none" xmlns="http://www.w3.org/2000/svg">
<g filter="url(#filter0_d_151_133)">
<path d="M59.9526 19.9663L32.9804 0.226256C32.7796 0.0792462 32.5371 0 32.2882 0C32.0393 0 31.7969 0.0792462 31.5961 0.226256L4.62395 19.9663C4.10176 20.3485 3.9882 21.0818 4.37047 21.6041L7.89582 26.4211C7.98668 26.5453 8.10113 26.6504 8.23263 26.7304C8.36412 26.8104 8.5101 26.8637 8.6622 26.8872C8.8143 26.9107 8.96955 26.9041 9.11908 26.8676C9.26861 26.8311 9.40947 26.7655 9.53363 26.6745L10.5975 25.8959V58.828C10.5975 59.4751 11.1222 59.9998 11.7693 59.9998H52.8691C53.5162 59.9998 54.041 59.4751 54.041 58.828V25.9413L55.0429 26.6745C55.1671 26.7655 55.308 26.831 55.4575 26.8675C55.607 26.904 55.7622 26.9106 55.9143 26.8871C56.0664 26.8636 56.2123 26.8103 56.3438 26.7303C56.4753 26.6504 56.5898 26.5453 56.6806 26.4211L60.206 21.6041C60.5884 21.0816 60.4748 20.3485 59.9526 19.9663ZM51.6972 53.0856H23.9716C23.3245 53.0856 22.7997 53.6103 22.7997 54.2574C22.7997 54.9045 23.3245 55.4293 23.9716 55.4293H51.6972V57.6562H12.9411V25.105H40.3843C41.0314 25.105 41.5562 24.5803 41.5562 23.9332C41.5562 23.2861 41.0314 22.7613 40.3843 22.7613H14.8813L32.2883 10.0213L51.6972 24.226V53.0856ZM55.4814 24.0911L32.9804 7.62348C32.7796 7.47638 32.5372 7.39712 32.2883 7.39719C32.0394 7.39709 31.7969 7.47636 31.5962 7.62348L9.095 24.0911L6.95387 21.1654L32.2884 2.62391L57.6229 21.1654L55.4814 24.0911Z" fill="#F1CDB3"/>
<path d="M45.7555 23.7046C45.7403 23.6295 45.7168 23.5557 45.6875 23.4842C45.6582 23.4139 45.6219 23.3459 45.5797 23.2826C45.5375 23.2184 45.4888 23.1587 45.4344 23.1045C45.2141 22.8855 44.9165 22.7621 44.6059 22.761C44.2977 22.761 43.9953 22.8864 43.7775 23.1045C43.7236 23.1584 43.6744 23.2182 43.6322 23.2826C43.59 23.3459 43.5537 23.4139 43.5244 23.4842C43.4951 23.5557 43.4716 23.6295 43.4576 23.7046C43.4423 23.7796 43.4341 23.8569 43.4341 23.933C43.4341 24.0092 43.4423 24.0866 43.4576 24.1615C43.4716 24.2364 43.4951 24.3103 43.5244 24.3818C43.5537 24.4523 43.59 24.5202 43.6322 24.5835C43.6744 24.648 43.7236 24.7076 43.7775 24.7616C43.8314 24.8155 43.8912 24.8648 43.9556 24.9069C44.0189 24.949 44.0869 24.9855 44.1583 25.0148C44.2287 25.0441 44.3024 25.0675 44.3775 25.0816C44.4525 25.0968 44.5298 25.1049 44.6059 25.1049C44.6821 25.1049 44.7595 25.0968 44.8344 25.0816C44.9096 25.067 44.983 25.0446 45.0535 25.0148C45.125 24.9855 45.193 24.949 45.2563 24.9069C45.3207 24.8648 45.3804 24.8155 45.4344 24.7616C45.4883 24.7077 45.5375 24.648 45.5797 24.5835C45.6219 24.5202 45.6582 24.4523 45.6875 24.3818C45.7168 24.3105 45.7403 24.2365 45.7555 24.1615C45.7707 24.0865 45.7776 24.0092 45.7776 23.933C45.7776 23.8569 45.7706 23.7795 45.7555 23.7046Z" fill="#F1CDB3"/>
<path d="M20.8986 54.0281C20.8836 53.9531 20.8612 53.8797 20.8319 53.809C20.8026 53.7386 20.7661 53.6695 20.724 53.6063C20.6815 53.5423 20.6329 53.4826 20.5788 53.4281C20.5249 53.3742 20.465 53.3262 20.4006 53.2828C20.2726 53.1978 20.1294 53.1385 19.9788 53.1082C19.8276 53.0777 19.6718 53.0777 19.5206 53.1082C19.4467 53.1234 19.3729 53.1457 19.3014 53.175C19.2311 53.2043 19.1631 53.2406 19.0999 53.2828C19.0354 53.325 18.9755 53.3742 18.9217 53.4281C18.8667 53.482 18.8186 53.543 18.7753 53.6063C18.6903 53.7342 18.631 53.8775 18.6008 54.0281C18.5854 54.1043 18.5785 54.1805 18.5785 54.2566C18.578 54.4106 18.6082 54.5632 18.6674 54.7054C18.6967 54.7758 18.7332 54.8438 18.7753 54.9081C18.8186 54.9714 18.8667 55.0312 18.9217 55.0862C18.9756 55.1403 19.0355 55.1895 19.0999 55.2315C19.1631 55.2737 19.2311 55.3101 19.3014 55.3394C19.3729 55.3686 19.4467 55.3909 19.5206 55.4061C19.5967 55.4214 19.6741 55.4296 19.7503 55.4296C19.9818 55.4286 20.2079 55.3598 20.4006 55.2315C20.4649 55.1894 20.5246 55.1407 20.5788 55.0862C20.6327 55.0312 20.6819 54.9715 20.724 54.9081C20.8524 54.7151 20.9213 54.4885 20.922 54.2566C20.922 54.1805 20.9138 54.1042 20.8986 54.0281Z" fill="#F1CDB3"/>
<path d="M46.8447 30.5741C46.8447 29.5803 46.455 28.6476 45.7472 27.9481C45.0462 27.2554 44.0876 26.8676 43.1101 26.876C42.8019 26.8793 42.4954 26.9208 42.1974 26.9997C40.0274 27.5554 37.9072 28.2902 35.8587 29.1966C34.6888 28.9199 33.4906 28.7806 32.2884 28.7813C31.6114 28.7813 30.9285 28.8257 30.258 28.9133C29.7403 28.9816 29.2264 29.0761 28.7183 29.1966C26.6701 28.2903 24.5503 27.5556 22.3806 26.9999C22.3701 26.997 22.3597 26.9942 22.3492 26.9915C21.1958 26.6978 20.0063 26.9619 19.086 27.7171C18.1658 28.472 17.6744 29.5867 17.7376 30.7745C17.8021 31.9938 17.9221 33.2096 18.097 34.418C18.2542 35.5012 18.4549 36.5776 18.6988 37.6446C18.336 38.5729 18.0832 39.5405 17.9456 40.5276C17.8884 40.9397 17.8595 41.3553 17.8591 41.7714C17.8591 47.0173 22.4337 51.2853 28.0568 51.2853H36.5204C39.6026 51.2853 42.4861 50.0035 44.4317 47.7686C46.2147 45.7205 46.9959 43.1486 46.6314 40.5269C46.5529 39.9648 46.4373 39.4085 46.2852 38.8617C46.1699 38.4498 46.0343 38.0438 45.8788 37.6453C46.3946 35.3878 46.716 33.0901 46.8394 30.7777C46.843 30.7091 46.8447 30.6416 46.8447 30.5741ZM44.4988 30.647L44.4985 30.651C44.3761 32.949 44.0461 35.2312 43.5124 37.4697C43.4543 37.7133 43.4758 37.9692 43.5737 38.1997C43.7523 38.6199 43.9037 39.0511 44.0269 39.4907C44.151 39.937 44.2453 40.391 44.3094 40.8497C44.5792 42.7897 43.9946 44.7004 42.6634 46.2296C41.163 47.9529 38.9239 48.9414 36.5198 48.9414H28.0562C23.7256 48.9414 20.2023 45.7249 20.2023 41.7714C20.2023 41.4679 20.224 41.1574 20.2665 40.8496C20.3939 39.938 20.6413 39.0473 21.0023 38.2007C21.1006 37.9699 21.1222 37.7138 21.0641 37.4698C20.7974 36.3508 20.5811 35.2203 20.4159 34.0819C20.2512 32.9439 20.1382 31.799 20.0775 30.6508C20.0543 30.2148 20.2345 29.806 20.5721 29.5289C20.8194 29.326 21.1199 29.2196 21.4291 29.2196C21.5345 29.2196 21.641 29.2319 21.7468 29.2571L21.7701 29.2633C23.9494 29.8194 26.0752 30.5674 28.1225 31.4985C28.3698 31.6112 28.6485 31.6346 28.9111 31.5646C29.4537 31.4199 30.0052 31.3106 30.562 31.2372C31.1312 31.1628 31.712 31.125 32.2877 31.125C33.4355 31.125 34.5714 31.2729 35.6642 31.5646C35.9265 31.6342 36.2049 31.6114 36.452 31.499C38.5066 30.5646 40.6402 29.8145 42.8274 29.2573C42.9275 29.2333 43.03 29.2207 43.1329 29.2196H43.1482C43.4985 29.2196 43.8444 29.3632 44.0992 29.6149C44.2266 29.74 44.3278 29.8892 44.3967 30.0539C44.4657 30.2186 44.501 30.3955 44.5005 30.574C44.5006 30.5983 44.5001 30.6224 44.4988 30.647Z" fill="#F1CDB3"/>
<path d="M34.4862 43.5662C33.9205 43.5662 33.4602 43.1059 33.4602 42.5403C33.4602 41.8932 32.9355 41.3684 32.2883 41.3684C31.6411 41.3684 31.1164 41.8932 31.1164 42.5403V42.5831C31.1164 43.1487 30.6562 43.609 30.0906 43.609C29.4433 43.609 28.9187 44.1338 28.9187 44.7809C28.9187 45.428 29.4433 45.9528 30.0906 45.9528C30.9413 45.9528 31.7192 45.6356 32.3129 45.1135C32.9199 45.6284 33.6902 45.9107 34.4862 45.9099C35.1333 45.9099 35.658 45.3851 35.658 44.738C35.658 44.0908 35.1333 43.5662 34.4862 43.5662Z" fill="#F1CDB3"/>
<path d="M28.1919 38.1664L26.4512 37.3688C26.2981 37.2985 26.1316 37.2621 25.9631 37.2621C25.7947 37.2621 25.6282 37.2985 25.475 37.3688L23.7342 38.1664C23.1458 38.4359 22.8873 39.1314 23.157 39.7198C23.221 39.8597 23.3121 39.9856 23.4248 40.0904C23.5376 40.1951 23.6698 40.2766 23.8141 40.3302C23.9584 40.3838 24.1118 40.4085 24.2655 40.4028C24.4193 40.3971 24.5705 40.3612 24.7104 40.2971L25.963 39.7232L27.2156 40.2971C27.8037 40.5669 28.4995 40.3082 28.7691 39.7198C29.0388 39.1314 28.7802 38.4358 28.1919 38.1664Z" fill="#F1CDB3"/>
<path d="M40.8423 38.1662L39.1016 37.3686C38.9485 37.2983 38.782 37.262 38.6135 37.262C38.4451 37.262 38.2786 37.2983 38.1255 37.3686L36.3847 38.1662C35.7963 38.4357 35.5378 39.1312 35.8075 39.7196C36.0771 40.3083 36.7726 40.5669 37.3609 40.2969L38.6135 39.723L39.8662 40.2969C40.019 40.3672 40.1853 40.4036 40.3535 40.4036C40.7977 40.4036 41.2225 40.1498 41.4196 39.7196C41.6892 39.1312 41.4308 38.4357 40.8423 38.1662Z" fill="#F1CDB3"/>
</g>
<defs>
<filter id="filter0_d_151_133" x="-2" y="0" width="68" height="67.9998" filterUnits="userSpaceOnUse" color-interpolation-filters="sRGB">
<feFlood flood-opacity="0" result="BackgroundImageFix"/>
<feColorMatrix in="SourceAlpha" type="matrix" values="0 0 0 0 0 0 0 0 0 0 0 0 0 0 0 0 0 0 127 0" result="hardAlpha"/>
<feOffset dy="4"/>
<feGaussianBlur stdDeviation="2"/>
<feComposite in2="hardAlpha" operator="out"/>
<feColorMatrix type="matrix" values="0 0 0 0 0 0 0 0 0 0 0 0 0 0 0 0 0 0 0.25 0"/>
<feBlend mode="normal" in2="BackgroundImageFix" result="effect1_dropShadow_151_133"/>
<feBlend mode="normal" in="SourceGraphic" in2="effect1_dropShadow_151_133" result="shape"/>
</filter>
</defs>
</svg>
