<svg width="68" height="67" viewBox="0 0 68 67" fill="none" xmlns="http://www.w3.org/2000/svg">
<g filter="url(#filter0_d_151_153)">
<path d="M63.985 39.8551L61.1255 20.6441C61.0792 15.0657 57.693 9.89303 51.8159 6.43765C46.9483 3.57605 40.6213 2 34.0001 2C27.3786 2 21.0515 3.57605 16.1838 6.43765C10.3069 9.89303 6.92054 15.0657 6.87437 20.6441L4.01488 39.8551C4.00504 39.9216 4 39.9887 4 40.056C4 45.7049 7.76452 50.936 14.3284 54.408C19.7022 57.2504 26.6883 58.8158 34.0001 58.8158C41.3116 58.8158 48.2978 57.2504 53.6716 54.408C60.2354 50.936 64 45.7049 64 40.056C63.9999 39.9888 63.9949 39.9216 63.985 39.8551ZM17.5668 8.78995C22.0215 6.17105 27.8576 4.72871 34.0001 4.72871C40.1424 4.72871 45.9785 6.17105 50.4331 8.78995C55.4956 11.7663 58.3993 16.1293 58.3993 20.7599C58.3993 25.3906 55.4957 29.7535 50.4332 32.7299C45.9785 35.3488 40.1424 36.7911 34.0001 36.7911C27.8577 36.7911 22.0215 35.3488 17.5669 32.7299C12.5044 29.7536 9.60073 25.3906 9.60073 20.7599C9.60073 16.1293 12.5043 11.7664 17.5668 8.78995ZM52.3956 51.996C47.4079 54.6342 40.875 56.0871 34.0001 56.0871C27.125 56.0871 20.592 54.6342 15.6044 51.996C10.0037 49.0333 6.77453 44.7218 6.72917 40.1535L8.60757 27.5342C10.1723 30.4612 12.7528 33.0645 16.1841 35.0819C21.0517 37.9434 27.3787 39.5195 34.0001 39.5195C40.6213 39.5195 46.9485 37.9434 51.816 35.0819C55.2473 33.0645 57.8279 30.461 59.3925 27.5342L61.2709 40.1535C61.2255 44.7219 57.9963 49.0335 52.3956 51.996Z" fill="#F1CDB3"/>
<path d="M34.0001 34.0618C43.3534 34.0618 51.6079 30.4427 54.5397 25.0569C55.29 23.6803 55.6707 22.2344 55.6707 20.7599C55.6707 17.0676 53.3194 13.652 49.0502 11.1422C45.0085 8.76631 39.6637 7.45791 34.0001 7.45791C28.3366 7.45791 22.9916 8.76643 18.9501 11.1423C14.6807 13.6521 12.3295 17.0676 12.3295 20.76C12.3295 22.2347 12.71 23.6804 13.4601 25.0563C16.3923 30.4427 24.6467 34.0618 34.0001 34.0618ZM34.0001 31.3332C26.1546 31.3332 19.0282 28.5145 16.2557 24.4006C19.0293 20.2891 26.1568 17.4732 34.0001 17.4732C41.8435 17.4732 48.9711 20.2891 51.7446 24.4008C48.9726 28.5145 41.8458 31.3332 34.0001 31.3332ZM15.0579 20.76C15.058 18.0744 16.9313 15.4942 20.3328 13.4945C23.9617 11.3613 28.8154 10.1865 34 10.1865C39.1845 10.1865 44.0384 11.3613 47.6672 13.4946C51.0687 15.4942 52.9421 18.0743 52.9421 20.76C52.9421 20.9993 52.9259 21.238 52.896 21.4761C49.1332 17.3699 41.9658 14.7446 34 14.7446C26.0342 14.7446 18.8669 17.37 15.1041 21.4761C15.0738 21.2386 15.0584 20.9994 15.0579 20.76Z" fill="#F1CDB3"/>
<path d="M34 41.7701C33.8155 41.7701 33.6329 41.8076 33.4633 41.8801C33.2936 41.9527 33.1405 42.059 33.0131 42.1924C32.1243 43.1235 29.225 46.3365 29.225 48.5916C29.225 51.2246 31.367 53.3666 34 53.3666C36.633 53.3666 38.775 51.2246 38.775 48.5916C38.775 46.3365 35.8756 43.1235 34.987 42.1924C34.8595 42.059 34.7064 41.9527 34.5368 41.8801C34.3671 41.8076 34.1845 41.7701 34 41.7701ZM34 50.6381C32.8716 50.6381 31.9536 49.7201 31.9536 48.5917C31.9536 47.986 32.9058 46.5224 34 45.1941C35.0943 46.5226 36.0465 47.986 36.0465 48.5917C36.0465 49.7201 35.1284 50.6381 34 50.6381Z" fill="#F1CDB3"/>
<path d="M27.8843 23.8977H27.4637C26.7102 23.8977 26.0994 24.5085 26.0994 25.262C26.0994 26.0155 26.7102 26.6263 27.4637 26.6263H27.8843C28.6378 26.6263 29.2486 26.0155 29.2486 25.262C29.2486 24.5085 28.6378 23.8977 27.8843 23.8977Z" fill="#F1CDB3"/>
<path d="M44.074 23.8977H34.342C33.5884 23.8977 32.9777 24.5085 32.9777 25.262C32.9777 26.0155 33.5884 26.6263 34.342 26.6263H44.074C44.8275 26.6263 45.4383 26.0155 45.4383 25.262C45.4383 24.5085 44.8275 23.8977 44.074 23.8977Z" fill="#F1CDB3"/>
</g>
<defs>
<filter id="filter0_d_151_153" x="0" y="0" width="68" height="68" filterUnits="userSpaceOnUse" color-interpolation-filters="sRGB">
<feFlood flood-opacity="0" result="BackgroundImageFix"/>
<feColorMatrix in="SourceAlpha" type="matrix" values="0 0 0 0 0 0 0 0 0 0 0 0 0 0 0 0 0 0 127 0" result="hardAlpha"/>
<feOffset dy="4"/>
<feGaussianBlur stdDeviation="2"/>
<feComposite in2="hardAlpha" operator="out"/>
<feColorMatrix type="matrix" values="0 0 0 0 0 0 0 0 0 0 0 0 0 0 0 0 0 0 0.25 0"/>
<feBlend mode="normal" in2="BackgroundImageFix" result="effect1_dropShadow_151_153"/>
<feBlend mode="normal" in="SourceGraphic" in2="effect1_dropShadow_151_153" result="shape"/>
</filter>
</defs>
</svg>
